<?xml version="1.0" standalone="no"?>
<!DOCTYPE svg PUBLIC "-//W3C//DTD SVG 20010904//EN"
 "http://www.w3.org/TR/2001/REC-SVG-20010904/DTD/svg10.dtd">
<svg version="1.0" xmlns="http://www.w3.org/2000/svg"
 width="401.000000pt" height="401.000000pt" viewBox="0 0 401.000000 401.000000"
 preserveAspectRatio="xMidYMid meet">
<metadata>
Created by potrace 1.14, written by Peter Selinger 2001-2017
</metadata>
<g transform="translate(0.000000,401.000000) scale(0.100000,-0.100000)"
fill="#000000" stroke="none">
<path d="M1978 3979 c-15 -8 -49 -66 -151 -250 -14 -26 -107 -194 -207 -375
-200 -362 -231 -417 -268 -484 -14 -25 -57 -101 -95 -170 -38 -69 -82 -147
-97 -175 -15 -27 -60 -108 -99 -180 -68 -124 -125 -260 -136 -327 -3 -17 -8
-34 -10 -38 -19 -31 -27 -308 -11 -405 77 -490 465 -862 969 -930 47 -7 225
-6 277 0 174 23 348 89 490 185 77 53 204 173 261 248 110 145 194 357 216
542 24 209 -22 471 -111 633 -87 158 -202 368 -219 397 -11 19 -65 116 -119
215 -55 99 -113 203 -128 230 -84 151 -236 427 -260 470 -151 275 -224 402
-237 413 -20 14 -42 15 -65 1z m-650 -2268 c8 -4 25 -48 38 -96 51 -181 147
-317 292 -413 30 -20 60 -44 65 -53 15 -24 0 -68 -28 -81 -33 -15 -71 2 -161
73 -121 96 -214 227 -267 376 -36 100 -42 148 -23 178 17 26 57 33 84 16z"/>
<path d="M680 1314 c-333 -113 -546 -257 -626 -421 -23 -48 -29 -71 -29 -133
0 -65 4 -84 32 -140 38 -77 92 -138 187 -209 63 -48 187 -118 261 -147 200
-79 430 -144 635 -179 19 -3 42 -8 50 -10 8 -2 38 -7 65 -10 28 -3 61 -7 75
-10 55 -9 222 -25 340 -32 222 -12 707 -6 835 12 17 2 53 6 80 9 113 12 217
28 335 51 69 14 135 27 147 29 122 24 370 108 499 170 200 96 333 206 390 321
25 52 29 71 29 145 0 69 -5 93 -24 130 -65 125 -188 231 -373 322 -131 64
-386 154 -400 140 -3 -4 -15 -31 -26 -59 -18 -48 -19 -53 -4 -53 35 0 262 -83
367 -134 161 -78 287 -180 320 -260 27 -65 28 -113 1 -171 -98 -215 -495 -390
-1101 -485 -71 -12 -157 -23 -190 -25 -33 -3 -91 -7 -130 -11 -38 -3 -92 -8
-120 -10 -73 -4 -532 -5 -585 0 -25 2 -90 7 -145 10 -111 8 -140 11 -325 37
-268 38 -555 118 -747 209 -125 59 -193 103 -260 170 -122 120 -127 238 -16
361 87 96 328 222 546 286 51 15 93 27 94 28 5 2 -40 115 -46 115 -3 0 -67
-21 -141 -46z"/>
<path d="M865 1035 c-313 -89 -444 -230 -344 -372 35 -51 123 -105 244 -151
116 -43 369 -99 530 -116 28 -3 72 -9 99 -12 245 -31 903 -36 1136 -9 19 2 58
7 85 10 184 20 264 32 394 59 123 26 268 74 352 116 232 118 216 294 -37 411
-70 32 -243 89 -271 89 -5 0 -26 -23 -47 -51 -39 -52 -38 -67 4 -70 45 -2 243
-65 301 -95 49 -25 89 -65 89 -89 0 -29 -34 -55 -132 -99 -73 -33 -313 -100
-398 -110 -25 -3 -54 -8 -65 -10 -11 -2 -42 -7 -70 -10 -27 -4 -65 -10 -84
-13 -18 -2 -54 -6 -80 -8 -25 -3 -89 -8 -141 -12 -123 -10 -758 -10 -875 0
-87 8 -104 10 -210 23 -189 22 -452 80 -567 124 -83 33 -158 82 -165 108 -11
46 58 91 232 150 50 17 104 33 120 36 17 3 42 8 57 12 l28 6 -38 53 c-20 30
-44 54 -52 54 -8 -1 -51 -11 -95 -24z"/>
</g>
</svg>
